<svg width="1065" height="117" viewBox="0 0 1065 117" fill="none" xmlns="http://www.w3.org/2000/svg">
<path d="M43.7049 39.45C52.2049 39.45 59.6299 41.075 65.9799 44.325C72.3299 47.525 77.2549 52.025 80.7549 57.825C84.3049 63.625 86.0799 70.375 86.0799 78.075C86.0799 85.175 84.2299 91.6 80.5299 97.35C76.8299 103.1 71.7049 107.675 65.1549 111.075C58.6549 114.425 51.1049 116.1 42.5049 116.1C34.0049 116.1 26.5799 114.475 20.2299 111.225C13.8799 107.925 8.92988 103.375 5.37988 97.575C1.87988 91.775 0.129883 85.075 0.129883 77.475C0.129883 70.225 1.97988 63.75 5.67988 58.05C9.37988 52.3 14.4799 47.775 20.9799 44.475C27.5299 41.125 35.1049 39.45 43.7049 39.45ZM49.1799 105.225C51.0799 104.775 52.5299 103.45 53.5299 101.25C54.5299 99.05 54.9799 95.85 54.8799 91.65C54.7799 87.45 54.0299 82.125 52.6299 75.675C51.3299 69.475 49.8549 64.425 48.2049 60.525C46.6049 56.625 44.8549 53.825 42.9549 52.125C41.0549 50.425 39.0799 49.825 37.0299 50.325C35.1299 50.775 33.6799 52.1 32.6799 54.3C31.6799 56.5 31.2299 59.7 31.3299 63.9C31.4799 68.05 32.2299 73.375 33.5799 79.875C34.8799 86.025 36.3549 91.075 38.0049 95.025C39.6549 98.925 41.4049 101.725 43.2549 103.425C45.1549 105.075 47.1299 105.675 49.1799 105.225ZM149.162 98.625V97.65H148.037V63C148.037 61.4 147.812 60.275 147.362 59.625C146.962 58.925 146.337 58.45 145.487 58.2L143.837 57.675C142.787 57.325 142.012 56.825 141.512 56.175C141.062 55.525 140.837 54.7 140.837 53.7C140.837 52.5 141.162 51.55 141.812 50.85C142.462 50.15 143.687 49.45 145.487 48.75L162.137 42.3C164.687 41.3 166.737 40.575 168.287 40.125C169.887 39.675 171.437 39.45 172.937 39.45C175.187 39.45 176.887 40.1 178.037 41.4C179.237 42.65 179.837 44.25 179.837 46.2V98.25C179.837 100.25 179.987 101.675 180.287 102.525C180.587 103.325 181.112 103.9 181.862 104.25L183.512 105C184.662 105.5 185.487 106.125 185.987 106.875C186.487 107.625 186.737 108.5 186.737 109.5C186.737 110.9 186.287 112 185.387 112.8C184.487 113.6 183.037 114 181.037 114H162.662C159.112 114 155.962 112.475 153.212 109.425C150.512 106.375 149.162 102.775 149.162 98.625ZM99.5869 92.1V63C99.5869 61.4 99.3619 60.275 98.9119 59.625C98.5119 58.925 97.8869 58.45 97.0369 58.2L95.3869 57.675C94.3369 57.325 93.5619 56.825 93.0619 56.175C92.6119 55.525 92.3869 54.7 92.3869 53.7C92.3869 52.5 92.7119 51.55 93.3619 50.85C94.0119 50.15 95.2369 49.45 97.0369 48.75L113.687 42.3C116.387 41.25 118.512 40.525 120.062 40.125C121.612 39.675 122.987 39.45 124.187 39.45C126.587 39.45 128.387 40.1 129.587 41.4C130.787 42.65 131.387 44.25 131.387 46.2V87.6C131.387 90.8 132.112 93.2 133.562 94.8C135.062 96.4 137.137 97.2 139.787 97.2C141.437 97.2 143.162 96.875 144.962 96.225C146.762 95.575 148.362 94.625 149.762 93.375L152.387 91.05L156.887 95.85L154.637 97.95C147.587 104.7 141.462 109.425 136.262 112.125C131.062 114.775 126.287 116.1 121.937 116.1C115.287 116.1 109.887 113.875 105.737 109.425C101.637 104.975 99.5869 99.2 99.5869 92.1ZM231.183 73.05C231.183 65.4 232.183 59.1 234.183 54.15C236.183 49.15 238.833 45.45 242.133 43.05C245.483 40.65 249.133 39.45 253.083 39.45C258.383 39.45 262.433 41.05 265.233 44.25C268.083 47.4 269.508 52.175 269.508 58.575C269.508 65.125 268.183 69.95 265.533 73.05C262.933 76.15 259.533 77.7 255.333 77.7C251.083 77.7 247.883 76.625 245.733 74.475C243.633 72.275 242.583 69.25 242.583 65.4V62.25C242.533 60.95 242.233 59.975 241.683 59.325C241.183 58.625 240.383 58.275 239.283 58.275C238.283 58.275 237.383 58.725 236.583 59.625C235.833 60.475 235.233 61.9 234.783 63.9C234.333 65.85 234.108 68.5 234.108 71.85L231.183 73.05ZM232.008 46.2L234.108 61.875V98.25C234.108 100 234.358 101.25 234.858 102C235.358 102.7 236.508 103.225 238.308 103.575L244.008 104.7C245.508 105 246.608 105.525 247.308 106.275C248.008 107.025 248.358 108.075 248.358 109.425C248.358 110.875 247.858 112 246.858 112.8C245.908 113.6 244.483 114 242.583 114H201.108C199.108 114 197.658 113.6 196.758 112.8C195.858 112 195.408 110.9 195.408 109.5C195.408 108.5 195.658 107.625 196.158 106.875C196.658 106.125 197.483 105.5 198.633 105L200.283 104.25C201.033 103.9 201.558 103.325 201.858 102.525C202.158 101.675 202.308 100.25 202.308 98.25V63.3C202.308 61.7 202.083 60.575 201.633 59.925C201.233 59.225 200.608 58.75 199.758 58.5L198.108 57.975C197.058 57.625 196.283 57.125 195.783 56.475C195.333 55.825 195.108 55 195.108 54C195.108 52.8 195.433 51.85 196.083 51.15C196.783 50.4 198.008 49.7 199.758 49.05L215.883 42.75C219.433 41.35 221.983 40.45 223.533 40.05C225.083 39.65 226.283 39.45 227.133 39.45C228.533 39.45 229.608 39.975 230.358 41.025C231.108 42.025 231.658 43.75 232.008 46.2ZM381.068 62.625C381.068 66.425 379.618 69.65 376.718 72.3C373.868 74.95 370.043 76.275 365.243 76.275C360.593 76.275 357.093 75.05 354.743 72.6C352.443 70.1 351.293 66.925 351.293 63.075V60.675C351.293 57.425 350.618 54.875 349.268 53.025C347.918 51.125 346.143 50.175 343.943 50.175C342.193 50.175 340.543 50.825 338.993 52.125C337.493 53.425 336.268 55.425 335.318 58.125C334.368 60.775 333.893 64.15 333.893 68.25C333.893 74.05 334.868 78.9 336.818 82.8C338.818 86.7 341.543 89.65 344.993 91.65C348.443 93.6 352.368 94.575 356.768 94.575C359.968 94.575 362.843 94.2 365.393 93.45C367.993 92.65 370.568 91.125 373.118 88.875C374.568 87.575 375.668 86.7 376.418 86.25C377.168 85.8 377.893 85.575 378.593 85.575C379.593 85.575 380.318 86.075 380.768 87.075C381.268 88.075 381.518 89.3 381.518 90.75C381.518 95.2 380.018 99.375 377.018 103.275C374.068 107.125 369.943 110.225 364.643 112.575C359.343 114.925 353.193 116.1 346.193 116.1C338.543 116.1 331.668 114.6 325.568 111.6C319.518 108.55 314.718 104.325 311.168 98.925C307.618 93.475 305.843 87.125 305.843 79.875C305.843 72.125 307.543 65.2 310.943 59.1C314.393 53 319.243 48.2 325.493 44.7C331.793 41.2 339.218 39.45 347.768 39.45C354.618 39.45 360.518 40.5 365.468 42.6C370.468 44.65 374.318 47.425 377.018 50.925C379.718 54.425 381.068 58.325 381.068 62.625ZM433.06 39.45C441.56 39.45 448.985 41.075 455.335 44.325C461.685 47.525 466.61 52.025 470.11 57.825C473.66 63.625 475.435 70.375 475.435 78.075C475.435 85.175 473.585 91.6 469.885 97.35C466.185 103.1 461.06 107.675 454.51 111.075C448.01 114.425 440.46 116.1 431.86 116.1C423.36 116.1 415.935 114.475 409.585 111.225C403.235 107.925 398.285 103.375 394.735 97.575C391.235 91.775 389.485 85.075 389.485 77.475C389.485 70.225 391.335 63.75 395.035 58.05C398.735 52.3 403.835 47.775 410.335 44.475C416.885 41.125 424.46 39.45 433.06 39.45ZM438.535 105.225C440.435 104.775 441.885 103.45 442.885 101.25C443.885 99.05 444.335 95.85 444.235 91.65C444.135 87.45 443.385 82.125 441.985 75.675C440.685 69.475 439.21 64.425 437.56 60.525C435.96 56.625 434.21 53.825 432.31 52.125C430.41 50.425 428.435 49.825 426.385 50.325C424.485 50.775 423.035 52.1 422.035 54.3C421.035 56.5 420.585 59.7 420.685 63.9C420.835 68.05 421.585 73.375 422.935 79.875C424.235 86.025 425.71 91.075 427.36 95.025C429.01 98.925 430.76 101.725 432.61 103.425C434.51 105.075 436.485 105.675 438.535 105.225ZM522.242 7.49999V98.25C522.242 100.25 522.392 101.675 522.692 102.525C522.992 103.325 523.517 103.9 524.267 104.25L525.917 105C527.067 105.5 527.892 106.125 528.392 106.875C528.892 107.625 529.142 108.5 529.142 109.5C529.142 110.9 528.692 112 527.792 112.8C526.892 113.6 525.442 114 523.442 114H489.242C487.242 114 485.792 113.6 484.892 112.8C483.992 112 483.542 110.9 483.542 109.5C483.542 108.5 483.792 107.625 484.292 106.875C484.792 106.125 485.617 105.5 486.767 105L488.417 104.25C489.167 103.9 489.692 103.325 489.992 102.525C490.292 101.675 490.442 100.25 490.442 98.25V24.3C490.442 22.7 490.217 21.575 489.767 20.925C489.367 20.225 488.742 19.75 487.892 19.5L486.242 18.975C485.192 18.625 484.417 18.125 483.917 17.475C483.467 16.825 483.242 16 483.242 15C483.242 13.8 483.567 12.85 484.217 12.15C484.867 11.45 486.092 10.75 487.892 10.05L504.542 3.59999C507.242 2.55 509.367 1.825 510.917 1.425C512.467 0.974993 513.842 0.749992 515.042 0.749992C517.442 0.749992 519.242 1.39999 520.442 2.69999C521.642 3.94999 522.242 5.54999 522.242 7.49999ZM574.977 7.49999V98.25C574.977 100.25 575.127 101.675 575.427 102.525C575.727 103.325 576.252 103.9 577.002 104.25L578.652 105C579.802 105.5 580.627 106.125 581.127 106.875C581.627 107.625 581.877 108.5 581.877 109.5C581.877 110.9 581.427 112 580.527 112.8C579.627 113.6 578.177 114 576.177 114H541.977C539.977 114 538.527 113.6 537.627 112.8C536.727 112 536.277 110.9 536.277 109.5C536.277 108.5 536.527 107.625 537.027 106.875C537.527 106.125 538.352 105.5 539.502 105L541.152 104.25C541.902 103.9 542.427 103.325 542.727 102.525C543.027 101.675 543.177 100.25 543.177 98.25V24.3C543.177 22.7 542.952 21.575 542.502 20.925C542.102 20.225 541.477 19.75 540.627 19.5L538.977 18.975C537.927 18.625 537.152 18.125 536.652 17.475C536.202 16.825 535.977 16 535.977 15C535.977 13.8 536.302 12.85 536.952 12.15C537.602 11.45 538.827 10.75 540.627 10.05L557.277 3.59999C559.977 2.55 562.102 1.825 563.652 1.425C565.202 0.974993 566.577 0.749992 567.777 0.749992C570.177 0.749992 571.977 1.39999 573.177 2.69999C574.377 3.94999 574.977 5.54999 574.977 7.49999ZM664.986 68.4C664.986 71.9 664.036 74.625 662.136 76.575C660.236 78.475 657.511 79.425 653.961 79.425H609.486V71.625H629.511C632.261 71.625 633.636 70.325 633.636 67.725C633.636 61.425 632.911 56.925 631.461 54.225C630.011 51.525 628.086 50.175 625.686 50.175C623.936 50.175 622.361 50.825 620.961 52.125C619.561 53.425 618.436 55.425 617.586 58.125C616.786 60.775 616.386 64.15 616.386 68.25C616.386 77.35 618.436 84.025 622.536 88.275C626.636 92.475 632.236 94.575 639.336 94.575C642.636 94.575 645.636 94.2 648.336 93.45C651.036 92.7 653.686 91.175 656.286 88.875C657.736 87.575 658.836 86.7 659.586 86.25C660.336 85.8 661.061 85.575 661.761 85.575C662.761 85.575 663.486 86.075 663.936 87.075C664.436 88.075 664.686 89.3 664.686 90.75C664.686 95.2 663.161 99.375 660.111 103.275C657.111 107.125 652.911 110.225 647.511 112.575C642.161 114.925 635.911 116.1 628.761 116.1C621.111 116.1 614.236 114.6 608.136 111.6C602.036 108.55 597.211 104.325 593.661 98.925C590.111 93.475 588.336 87.125 588.336 79.875C588.336 71.725 589.961 64.625 593.211 58.575C596.461 52.525 601.186 47.825 607.386 44.475C613.636 41.125 621.161 39.45 629.961 39.45C637.711 39.45 644.186 40.7 649.386 43.2C654.586 45.7 658.486 49.125 661.086 53.475C663.686 57.825 664.986 62.8 664.986 68.4ZM747.572 62.625C747.572 66.425 746.122 69.65 743.222 72.3C740.372 74.95 736.547 76.275 731.747 76.275C727.097 76.275 723.597 75.05 721.247 72.6C718.947 70.1 717.797 66.925 717.797 63.075V60.675C717.797 57.425 717.122 54.875 715.772 53.025C714.422 51.125 712.647 50.175 710.447 50.175C708.697 50.175 707.047 50.825 705.497 52.125C703.997 53.425 702.772 55.425 701.822 58.125C700.872 60.775 700.397 64.15 700.397 68.25C700.397 74.05 701.372 78.9 703.322 82.8C705.322 86.7 708.047 89.65 711.497 91.65C714.947 93.6 718.872 94.575 723.272 94.575C726.472 94.575 729.347 94.2 731.897 93.45C734.497 92.65 737.072 91.125 739.622 88.875C741.072 87.575 742.172 86.7 742.922 86.25C743.672 85.8 744.397 85.575 745.097 85.575C746.097 85.575 746.822 86.075 747.272 87.075C747.772 88.075 748.022 89.3 748.022 90.75C748.022 95.2 746.522 99.375 743.522 103.275C740.572 107.125 736.447 110.225 731.147 112.575C725.847 114.925 719.697 116.1 712.697 116.1C705.047 116.1 698.172 114.6 692.072 111.6C686.022 108.55 681.222 104.325 677.672 98.925C674.122 93.475 672.347 87.125 672.347 79.875C672.347 72.125 674.047 65.2 677.447 59.1C680.897 53 685.747 48.2 691.997 44.7C698.297 41.2 705.722 39.45 714.272 39.45C721.122 39.45 727.022 40.5 731.972 42.6C736.972 44.65 740.822 47.425 743.522 50.925C746.222 54.425 747.572 58.325 747.572 62.625ZM759.439 51.45L757.039 50.475C755.939 50.025 755.114 49.45 754.564 48.75C754.014 48.05 753.739 47.2 753.739 46.2C753.739 44.75 754.214 43.65 755.164 42.9C756.164 42.1 757.439 41.7 758.989 41.7H763.114C764.064 41.7 764.939 41.45 765.739 40.95C766.589 40.45 767.664 39.55 768.964 38.25L781.189 25.875C782.839 24.225 784.364 23 785.764 22.2C787.214 21.4 788.589 21 789.889 21C791.339 21 792.464 21.475 793.264 22.425C794.114 23.375 794.539 24.75 794.539 26.55V86.7C794.539 90.35 795.164 93.125 796.414 95.025C797.664 96.925 799.464 97.875 801.814 97.875C803.714 97.875 805.164 97.4 806.164 96.45C807.214 95.5 808.039 94.425 808.639 93.225C809.289 91.975 809.964 90.875 810.664 89.925C811.364 88.975 812.314 88.5 813.514 88.5C814.514 88.5 815.314 88.85 815.914 89.55C816.514 90.25 816.814 91.45 816.814 93.15C816.814 97.4 815.589 101.275 813.139 104.775C810.689 108.225 807.314 110.975 803.014 113.025C798.714 115.075 793.814 116.1 788.314 116.1C780.164 116.1 773.864 114.15 769.414 110.25C764.964 106.3 762.739 100.35 762.739 92.4V56.325C762.739 54.875 762.464 53.825 761.914 53.175C761.414 52.525 760.589 51.95 759.439 51.45ZM783.589 52.35V41.7H810.964C812.514 41.7 813.739 42.05 814.639 42.75C815.589 43.4 816.064 44.35 816.064 45.6C816.064 47.5 815.139 49.1 813.289 50.4C811.439 51.7 808.389 52.35 804.139 52.35H783.589ZM861.647 46.2V98.25C861.647 100.25 861.797 101.675 862.097 102.525C862.397 103.325 862.922 103.9 863.672 104.25L865.322 105C866.472 105.5 867.297 106.125 867.797 106.875C868.297 107.625 868.547 108.5 868.547 109.5C868.547 110.9 868.097 112 867.197 112.8C866.297 113.6 864.847 114 862.847 114H828.647C826.647 114 825.197 113.6 824.297 112.8C823.397 112 822.947 110.9 822.947 109.5C822.947 108.5 823.197 107.625 823.697 106.875C824.197 106.125 825.022 105.5 826.172 105L827.822 104.25C828.572 103.9 829.097 103.325 829.397 102.525C829.697 101.675 829.847 100.25 829.847 98.25V63C829.847 61.4 829.622 60.275 829.172 59.625C828.772 58.925 828.147 58.45 827.297 58.2L825.647 57.675C824.597 57.325 823.822 56.825 823.322 56.175C822.872 55.525 822.647 54.7 822.647 53.7C822.647 52.5 822.972 51.55 823.622 50.85C824.272 50.15 825.497 49.45 827.297 48.75L843.947 42.3C846.647 41.25 848.772 40.525 850.322 40.125C851.872 39.675 853.247 39.45 854.447 39.45C856.847 39.45 858.647 40.1 859.847 41.4C861.047 42.65 861.647 44.25 861.647 46.2ZM844.097 32.85C838.497 32.85 834.072 31.55 830.822 28.95C827.572 26.35 825.947 22.8 825.947 18.3C825.947 13.85 827.572 10.35 830.822 7.8C834.072 5.24999 838.497 3.97499 844.097 3.97499C849.697 3.97499 854.122 5.24999 857.372 7.8C860.622 10.35 862.247 13.85 862.247 18.3C862.247 22.8 860.622 26.35 857.372 28.95C854.122 31.55 849.697 32.85 844.097 32.85ZM918.656 39.45C927.156 39.45 934.581 41.075 940.931 44.325C947.281 47.525 952.206 52.025 955.706 57.825C959.256 63.625 961.031 70.375 961.031 78.075C961.031 85.175 959.181 91.6 955.481 97.35C951.781 103.1 946.656 107.675 940.106 111.075C933.606 114.425 926.056 116.1 917.456 116.1C908.956 116.1 901.531 114.475 895.181 111.225C888.831 107.925 883.881 103.375 880.331 97.575C876.831 91.775 875.081 85.075 875.081 77.475C875.081 70.225 876.931 63.75 880.631 58.05C884.331 52.3 889.431 47.775 895.931 44.475C902.481 41.125 910.056 39.45 918.656 39.45ZM924.131 105.225C926.031 104.775 927.481 103.45 928.481 101.25C929.481 99.05 929.931 95.85 929.831 91.65C929.731 87.45 928.981 82.125 927.581 75.675C926.281 69.475 924.806 64.425 923.156 60.525C921.556 56.625 919.806 53.825 917.906 52.125C916.006 50.425 914.031 49.825 911.981 50.325C910.081 50.775 908.631 52.1 907.631 54.3C906.631 56.5 906.181 59.7 906.281 63.9C906.431 68.05 907.181 73.375 908.531 79.875C909.831 86.025 911.306 91.075 912.956 95.025C914.606 98.925 916.356 101.725 918.206 103.425C920.106 105.075 922.081 105.675 924.131 105.225ZM1007.84 46.2V98.25C1007.84 100.25 1007.99 101.65 1008.29 102.45C1008.59 103.25 1009.11 103.85 1009.86 104.25L1011.36 105.075C1013.01 106.025 1013.84 107.4 1013.84 109.2C1013.84 112.4 1011.91 114 1008.06 114H974.838C972.838 114 971.388 113.6 970.488 112.8C969.588 112 969.138 110.9 969.138 109.5C969.138 108.5 969.388 107.625 969.888 106.875C970.388 106.125 971.213 105.5 972.363 105L974.013 104.25C974.763 103.9 975.288 103.325 975.588 102.525C975.888 101.675 976.038 100.25 976.038 98.25V63C976.038 61.4 975.813 60.275 975.363 59.625C974.963 58.925 974.338 58.45 973.488 58.2L971.838 57.675C970.788 57.325 970.013 56.825 969.513 56.175C969.063 55.525 968.838 54.7 968.838 53.7C968.838 52.5 969.163 51.55 969.813 50.85C970.463 50.15 971.688 49.45 973.488 48.75L990.138 42.3C992.688 41.3 994.738 40.575 996.288 40.125C997.888 39.675 999.438 39.45 1000.94 39.45C1003.19 39.45 1004.89 40.1 1006.04 41.4C1007.24 42.65 1007.84 44.25 1007.84 46.2ZM1005.14 64.5L1000.64 59.7L1002.89 57.6C1009.94 50.85 1016.06 46.15 1021.26 43.5C1026.46 40.8 1031.24 39.45 1035.59 39.45C1042.29 39.45 1047.69 41.675 1051.79 46.125C1055.89 50.525 1057.94 56.3 1057.94 63.45V98.25C1057.94 100.25 1058.09 101.675 1058.39 102.525C1058.69 103.325 1059.21 103.9 1059.96 104.25L1061.61 105C1062.76 105.5 1063.59 106.125 1064.09 106.875C1064.59 107.625 1064.84 108.5 1064.84 109.5C1064.84 110.9 1064.39 112 1063.49 112.8C1062.59 113.6 1061.14 114 1059.14 114H1025.91C1022.06 114 1020.14 112.4 1020.14 109.2C1020.14 107.4 1020.96 106.025 1022.61 105.075L1024.11 104.25C1024.86 103.85 1025.39 103.25 1025.69 102.45C1025.99 101.65 1026.14 100.25 1026.14 98.25V67.95C1026.14 64.75 1025.39 62.35 1023.89 60.75C1022.44 59.15 1020.39 58.35 1017.74 58.35C1016.09 58.35 1014.36 58.675 1012.56 59.325C1010.76 59.975 1009.16 60.925 1007.76 62.175L1005.14 64.5Z" fill="#83888F"/>
</svg>
